<?xml version="1.0" standalone="no"?>
<!DOCTYPE svg PUBLIC "-//W3C//DTD SVG 20010904//EN"
 "http://www.w3.org/TR/2001/REC-SVG-20010904/DTD/svg10.dtd">
<svg version="1.0" xmlns="http://www.w3.org/2000/svg"
 width="1139.000000pt" height="520.000000pt" viewBox="0 0 1139.000000 520.000000"
 preserveAspectRatio="xMidYMid meet">
<metadata>
Created by potrace 1.16, written by Peter Selinger 2001-2019
</metadata>
<g transform="translate(0.000000,520.000000) scale(0.100000,-0.100000)"
fill="#000000" stroke="none">
<path d="M1195 5074 c-153 -37 -317 -149 -410 -279 -94 -131 -135 -260 -135
-425 0 -115 18 -204 59 -294 174 -383 620 -538 994 -344 62 32 103 63 167 128
146 146 210 303 210 509 0 134 -18 211 -77 331 -88 178 -264 320 -459 370 -93
24 -258 26 -349 4z m324 -79 c175 -42 335 -172 415 -338 51 -106 68 -176 68
-287 0 -109 -17 -180 -64 -280 -80 -168 -253 -302 -445 -344 -335 -74 -660
130 -748 469 -18 69 -20 221 -4 297 27 127 125 283 230 364 67 51 170 102 244
120 70 17 228 17 304 -1z"/>
<path d="M1570 4615 l-65 -65 68 -68 67 -67 67 67 68 68 -65 65 c-35 36 -67
65 -70 65 -3 0 -35 -29 -70 -65z"/>
<path d="M1040 4495 l0 -95 95 0 96 0 -3 93 -3 92 -92 3 -93 3 0 -96z"/>
<path d="M1260 4495 l0 -95 95 0 95 0 0 95 0 95 -95 0 -95 0 0 -95z"/>
<path d="M1040 4265 l0 -96 93 3 92 3 3 93 3 92 -96 0 -95 0 0 -95z"/>
<path d="M1262 4268 l3 -93 93 -3 92 -3 0 96 0 95 -95 0 -96 0 3 -92z"/>
<path d="M1490 4265 l0 -95 95 0 95 0 0 95 0 95 -95 0 -95 0 0 -95z"/>
<path d="M9796 5054 c-192 -46 -367 -188 -456 -369 -53 -108 -70 -179 -70
-300 0 -120 16 -191 69 -300 50 -102 111 -178 192 -239 137 -103 265 -146 434
-146 317 0 570 185 672 490 26 79 26 312 -1 390 -83 242 -259 411 -492 470
-93 24 -258 26 -348 4z m306 -75 c89 -18 211 -83 283 -150 134 -126 196 -267
196 -444 0 -288 -187 -520 -480 -595 -59 -15 -207 -15 -273 0 -78 18 -194 74
-252 122 -151 124 -226 280 -226 473 0 174 50 295 175 421 86 87 175 139 285
168 66 18 219 20 292 5z"/>
<path d="M10082 4705 c-41 -19 -72 -38 -70 -43 34 -83 63 -142 69 -142 4 0 14
19 21 41 l14 42 32 -33 c111 -110 106 -280 -9 -384 -28 -25 -68 -50 -90 -56
-32 -9 -39 -15 -39 -35 0 -34 22 -32 99 6 189 95 229 347 80 502 l-49 51 14
43 c8 24 12 43 8 42 -4 0 -40 -16 -80 -34z"/>
<path d="M9822 4667 c-199 -102 -239 -367 -77 -516 l44 -41 -14 -34 c-8 -20
-15 -40 -15 -45 0 -10 126 43 144 59 9 9 -40 136 -56 146 -5 3 -15 -11 -23
-30 -9 -20 -19 -36 -24 -36 -15 0 -62 61 -82 105 -28 61 -25 163 6 224 30 59
95 117 150 133 50 15 48 13 40 37 -8 27 -38 27 -93 -2z"/>
<path d="M5350 4694 c-608 -56 -1049 -231 -1171 -466 -23 -43 -23 -44 -24
-513 0 -425 2 -474 17 -508 17 -37 17 -41 -3 -100 -20 -59 -20 -78 -17 -507 3
-319 7 -453 16 -473 10 -23 9 -39 -4 -83 -13 -46 -15 -116 -12 -482 l3 -428
37 -75 c39 -79 116 -164 198 -220 186 -125 484 -225 825 -276 172 -25 705 -26
885 0 533 76 910 256 1026 493 l35 71 6 429 c5 381 4 435 -11 486 -13 46 -14
62 -4 85 9 20 13 154 16 473 3 429 3 448 -17 507 -20 59 -20 63 -3 100 15 34
17 83 17 498 l0 460 -24 48 c-110 222 -469 386 -1011 463 -111 15 -665 28
-780 18z m805 -103 c526 -82 870 -247 921 -442 21 -79 -1 -137 -84 -219 -166
-162 -492 -273 -962 -326 -172 -19 -582 -18 -763 2 -453 49 -817 177 -966 339
-229 248 115 525 790 635 210 34 291 39 614 35 257 -2 334 -6 450 -24z m933
-1061 c-3 -251 -4 -268 -26 -314 -108 -235 -490 -410 -1057 -483 -107 -14
-689 -7 -800 10 -197 29 -476 112 -619 184 -167 83 -311 213 -335 300 -7 23
-11 163 -11 351 l0 314 49 -44 c180 -160 500 -264 1021 -330 146 -18 671 -15
800 6 445 70 791 198 935 346 l40 41 3 -58 c2 -32 2 -177 0 -323z m-2760 -618
c31 -32 89 -76 127 -98 76 -43 243 -114 269 -114 9 0 27 -6 39 -14 29 -19 360
-82 512 -98 157 -17 606 -17 765 0 111 12 303 43 445 74 28 5 60 16 72 24 12
8 31 14 41 14 18 0 67 19 102 39 8 5 40 19 70 32 140 59 272 170 293 246 11
42 12 43 19 18 10 -39 -17 -115 -57 -162 -19 -23 -65 -61 -103 -86 -284 -187
-783 -280 -1407 -262 -289 8 -432 26 -665 82 -160 38 -195 50 -336 119 -197
96 -275 179 -273 291 l0 48 15 -48 c10 -33 32 -64 72 -105z m57 41 c59 -45
197 -117 300 -157 81 -31 189 -60 413 -110 244 -55 721 -62 1050 -15 46 7 85
16 88 21 3 4 18 8 35 8 16 0 76 11 134 25 232 55 469 166 594 279 l33 31 -17
-34 c-89 -177 -447 -317 -975 -383 -159 -20 -630 -17 -805 5 -77 10 -171 25
-210 33 -38 8 -83 17 -100 20 -51 8 -119 25 -140 35 -11 5 -51 20 -90 33 -219
76 -321 138 -384 233 -40 60 -39 75 2 37 17 -17 50 -44 72 -61z m-33 -230
c175 -120 478 -215 786 -248 278 -29 516 -37 722 -26 335 20 528 48 730 107
149 43 165 48 170 54 3 3 48 26 100 52 52 26 123 70 158 98 l62 50 0 -328 0
-328 -32 -54 c-112 -186 -503 -339 -1005 -394 -188 -21 -577 -21 -766 -1 -284
31 -548 98 -733 185 -139 65 -269 168 -293 233 -7 18 -11 150 -11 359 l0 330
34 -30 c19 -16 54 -43 78 -59z m-18 -867 c90 -90 272 -181 461 -229 305 -78
502 -101 865 -101 299 0 459 14 689 60 107 22 255 64 326 93 218 89 362 195
386 285 10 37 12 39 20 19 13 -36 -16 -115 -61 -166 -143 -163 -518 -294 -972
-342 -194 -20 -582 -20 -776 0 -391 41 -744 151 -907 283 -86 69 -118 118
-122 189 l-3 58 16 -44 c10 -27 40 -68 78 -105z m23 48 c152 -116 483 -222
843 -271 193 -26 750 -26 925 0 371 55 653 145 824 261 l54 37 -25 -33 c-51
-67 -262 -186 -387 -218 -20 -5 -67 -18 -106 -30 -210 -62 -493 -95 -825 -95
-309 0 -562 25 -710 69 -25 8 -88 24 -140 36 -171 39 -255 73 -382 157 -56 37
-143 123 -124 123 3 0 27 -16 53 -36z m84 -289 c223 -115 487 -184 839 -220
131 -14 226 -16 455 -12 370 7 568 33 850 113 158 45 359 144 438 214 l58 52
-3 -318 c-3 -314 -3 -320 -27 -366 -107 -210 -515 -385 -1036 -443 -169 -19
-540 -19 -710 0 -454 50 -824 190 -982 369 -79 90 -78 82 -81 440 l-3 318 58
-51 c31 -28 96 -71 144 -96z"/>
<path d="M5345 4564 c-461 -46 -777 -140 -930 -277 -69 -61 -95 -110 -95 -177
0 -66 25 -115 93 -176 150 -137 470 -234 909 -275 200 -18 656 -7 843 21 342
51 598 140 721 252 69 63 94 111 94 178 0 67 -25 115 -94 177 -96 88 -287 167
-523 217 -230 48 -339 58 -668 61 -170 2 -328 1 -350 -1z m810 -103 c458 -71
745 -206 745 -351 0 -82 -76 -150 -254 -227 -117 -52 -164 -65 -339 -98 -205
-39 -394 -55 -656 -55 -307 0 -508 20 -736 72 -49 11 -109 24 -131 29 -61 12
-263 112 -312 154 -128 111 -85 226 123 325 149 71 343 122 585 154 175 24
183 24 520 21 262 -2 338 -6 455 -24z"/>
<path d="M8665 4406 c-69 -17 -105 -38 -148 -85 -62 -69 -97 -146 -300 -671
-136 -350 -227 -560 -265 -615 -61 -88 -118 -104 -382 -111 -235 -6 -230 -5
-230 -49 l0 -35 138 0 c182 0 340 16 406 41 74 27 133 93 185 205 23 49 48
100 55 114 8 14 89 219 181 455 92 237 188 470 212 518 75 146 121 167 360
167 l153 0 0 40 0 40 -157 -1 c-89 0 -180 -6 -208 -13z"/>
<path d="M2270 4330 l0 -40 153 0 c239 0 285 -21 360 -167 24 -48 120 -281
212 -518 92 -236 173 -441 181 -455 7 -14 32 -65 55 -114 52 -112 111 -178
185 -205 67 -25 225 -41 412 -41 l142 0 0 35 c0 42 1 42 -245 49 -259 7 -316
24 -377 111 -38 55 -129 265 -265 615 -203 525 -238 602 -300 671 -71 79 -145
99 -363 99 l-150 0 0 -40z"/>
<path d="M595 3300 c-205 -53 -376 -191 -465 -375 -51 -104 -70 -187 -70 -306
0 -393 313 -699 715 -699 283 0 523 147 649 398 88 174 88 430 0 604 -70 140
-194 264 -328 328 -148 70 -349 90 -501 50z m350 -80 c211 -54 395 -238 450
-449 58 -226 -26 -478 -211 -631 -254 -210 -645 -185 -872 55 -116 122 -172
258 -172 418 0 114 14 175 62 277 75 158 241 292 413 334 90 22 237 20 330 -4z"/>
<path d="M618 2935 c-97 -31 -188 -159 -188 -264 0 -67 27 -136 75 -189 86
-96 212 -122 329 -69 l60 28 83 -83 c81 -81 83 -82 103 -63 11 10 20 22 20 26
0 5 -36 45 -79 89 l-80 80 27 53 c34 69 37 170 5 238 -26 57 -85 118 -138 143
-52 25 -157 30 -217 11z m192 -78 c90 -47 136 -152 110 -247 -18 -66 -89 -133
-157 -149 -99 -24 -200 28 -244 124 -81 176 119 363 291 272z"/>
<path d="M10361 3279 c-134 -35 -215 -82 -321 -189 -75 -74 -104 -111 -133
-171 -52 -107 -77 -212 -77 -329 0 -315 192 -579 495 -681 62 -21 88 -24 220
-23 137 0 156 3 225 27 240 87 402 267 466 518 25 96 15 289 -20 387 -81 233
-264 402 -500 462 -105 26 -253 26 -355 -1z m349 -80 c109 -30 194 -81 281
-169 123 -124 180 -262 180 -440 0 -181 -57 -317 -185 -446 -129 -128 -265
-185 -446 -185 -178 0 -316 57 -440 180 -131 130 -190 269 -190 451 0 178 59
321 184 446 127 126 262 183 441 183 72 1 122 -5 175 -20z"/>
<path d="M10676 2869 l-28 -22 63 -63 c35 -35 69 -64 76 -64 17 0 43 53 43 88
0 17 -10 40 -25 56 -31 34 -90 36 -129 5z"/>
<path d="M10422 2617 l-172 -172 0 -63 0 -62 73 0 72 0 168 168 c92 92 167
172 167 177 0 13 -112 125 -125 125 -6 0 -88 -78 -183 -173z"/>
<path d="M1690 2610 l0 -40 1140 0 1140 0 0 40 0 40 -1140 0 -1140 0 0 -40z"/>
<path d="M7340 2610 l0 -40 1140 0 1140 0 0 40 0 40 -1140 0 -1140 0 0 -40z"/>
<path d="M3569 2359 c-176 -17 -252 -72 -328 -235 -23 -49 -48 -100 -55 -114
-8 -14 -89 -218 -181 -455 -92 -236 -188 -470 -212 -518 -75 -146 -121 -167
-360 -167 l-153 0 0 -40 0 -40 150 0 c218 0 292 20 363 99 62 69 97 146 300
671 136 350 227 560 265 615 61 88 118 104 382 111 235 6 230 5 230 49 l0 35
-157 -1 c-87 -1 -197 -5 -244 -10z"/>
<path d="M7340 2325 c0 -42 -1 -42 245 -49 259 -7 316 -24 377 -111 38 -55
129 -265 265 -615 203 -525 238 -602 300 -671 71 -79 145 -99 363 -99 l150 0
0 40 0 40 -153 0 c-239 0 -285 21 -360 167 -24 48 -120 282 -212 518 -92 237
-173 441 -181 455 -7 14 -32 65 -55 114 -52 112 -111 178 -185 205 -67 25
-225 41 -411 41 l-143 0 0 -35z"/>
<path d="M1182 1540 c-120 -32 -205 -83 -307 -185 -153 -152 -211 -306 -202
-529 6 -169 47 -279 149 -411 85 -109 237 -206 378 -241 88 -22 282 -15 360
13 226 82 369 226 451 453 21 58 24 82 24 220 0 144 -2 160 -27 228 -86 232
-260 395 -484 452 -101 26 -242 26 -342 0z m322 -76 c159 -41 319 -170 389
-314 20 -41 44 -102 52 -135 20 -77 20 -233 0 -310 -50 -195 -202 -366 -382
-432 -126 -45 -281 -47 -408 -3 -180 62 -341 242 -390 435 -19 76 -19 234 0
310 53 209 225 387 430 446 78 23 227 24 309 3z"/>
<path d="M1449 994 c-175 -175 -188 -185 -209 -174 -36 19 -130 8 -169 -20
-38 -26 -70 -90 -71 -138 0 -103 101 -187 204 -168 48 9 98 46 118 86 20 39
24 121 7 152 -10 18 1 33 102 134 l113 114 31 -30 31 -30 54 55 54 55 -29 30
c-28 29 -28 30 -10 50 18 20 18 21 -5 45 -13 14 -26 25 -29 25 -3 0 -90 -84
-192 -186z"/>
<path d="M9802 1520 c-244 -64 -440 -261 -503 -508 -26 -102 -26 -253 1 -356
47 -185 184 -360 347 -444 352 -182 775 -54 953 289 80 154 103 347 61 511
-64 249 -260 445 -507 508 -102 26 -252 26 -352 0z m332 -76 c280 -72 468
-319 468 -614 -1 -347 -275 -621 -621 -621 -249 0 -461 136 -566 363 -41 92
-55 156 -55 263 0 106 14 171 55 262 78 169 221 293 400 344 78 23 236 24 319
3z"/>
<path d="M9670 1035 l0 -95 95 0 95 0 0 35 0 35 100 0 100 0 0 -34 c0 -33 2
-35 38 -38 l37 -3 0 -100 0 -100 -38 -3 -38 -3 3 -92 3 -92 93 -3 92 -3 0 96
0 95 -35 0 -35 0 0 105 0 105 35 0 35 0 0 95 0 96 -92 -3 -93 -3 -3 -37 -3
-38 -100 0 -99 0 0 40 0 40 -95 0 -95 0 0 -95z"/>
<path d="M9672 638 l3 -93 93 -3 92 -3 0 96 0 95 -95 0 -96 0 3 -92z"/>
</g>
</svg>
