<?xml version="1.0" standalone="no"?>
<!DOCTYPE svg PUBLIC "-//W3C//DTD SVG 20010904//EN"
 "http://www.w3.org/TR/2001/REC-SVG-20010904/DTD/svg10.dtd">
<svg version="1.0" xmlns="http://www.w3.org/2000/svg"
 width="512.000000pt" height="512.000000pt" viewBox="0 0 512.000000 512.000000"
 preserveAspectRatio="xMidYMid meet">
<metadata>
Created by potrace 1.16, written by Peter Selinger 2001-2019
</metadata>
<g transform="translate(0.000000,512.000000) scale(0.100000,-0.100000)"
fill="#000000" stroke="none">
<path d="M1178 4712 l-408 -407 0 -2128 0 -2128 25 -24 24 -25 1743 0 c1883 1
1766 -3 1788 54 14 38 14 4974 0 5012 -22 57 64 53 -1405 54 l-1360 0 -407
-408z m3032 -2152 l0 -2410 -1645 0 -1645 0 0 2025 0 2025 350 0 c234 0 357 4
373 11 14 6 30 22 36 36 7 16 11 139 11 373 l0 350 1260 0 1260 0 0 -2410z
m-2670 2045 l0 -255 -257 0 -258 0 255 255 c140 140 256 255 257 255 2 0 3
-115 3 -255z"/>
<path d="M3155 4449 c-27 -5 -92 -30 -144 -55 -218 -106 -360 -331 -361 -571
l0 -63 -639 0 c-658 0 -691 -2 -711 -40 -6 -12 -10 -375 -10 -989 l0 -970 26
-20 c27 -21 28 -21 1199 -21 1171 0 1172 0 1199 21 l26 20 0 798 c0 795 0 798
21 817 45 40 119 167 145 247 34 104 38 267 10 362 -63 212 -225 382 -426 446
-75 25 -254 34 -335 18z m266 -155 c125 -37 228 -115 293 -223 51 -86 70 -154
70 -251 0 -394 -436 -627 -764 -408 -103 68 -172 167 -204 293 -65 247 87 509
339 585 76 23 195 25 266 4z m-701 -762 c88 -170 238 -290 422 -338 119 -30
311 -13 411 37 l37 19 0 -586 c0 -323 -2 -585 -4 -583 -2 2 -120 204 -261 449
-141 245 -262 450 -268 457 -26 25 -63 25 -93 0 -16 -14 -135 -196 -264 -406
-129 -209 -237 -380 -240 -380 -3 -1 -65 92 -139 205 -74 113 -144 212 -157
221 -38 24 -76 9 -110 -44 -16 -25 -115 -195 -220 -377 l-191 -331 -102 -3
-101 -3 0 871 0 870 619 0 620 0 41 -78z m551 -1209 l259 -448 -852 -3 c-468
-1 -853 0 -856 2 -4 4 291 522 306 538 4 4 66 -83 137 -194 130 -200 161 -238
196 -238 37 0 80 60 299 415 238 385 240 388 248 380 3 -2 121 -206 263 -452z"/>
<path d="M3115 4115 l-25 -24 0 -276 0 -276 25 -24 c13 -14 35 -25 48 -25 26
0 474 252 495 278 19 24 15 76 -8 97 -38 34 -465 275 -488 275 -13 0 -34 -11
-47 -25z m232 -241 c54 -31 99 -58 100 -59 4 -2 -193 -115 -200 -115 -4 0 -7
52 -7 115 0 63 2 115 4 115 3 0 49 -25 103 -56z"/>
<path d="M1945 3427 c-106 -36 -189 -106 -235 -202 -22 -43 -25 -64 -25 -150
0 -93 2 -105 33 -167 135 -275 530 -269 660 10 23 49 27 70 27 152 0 84 -3
102 -29 157 -35 76 -104 144 -184 180 -68 32 -184 41 -247 20z m166 -147 c52
-14 115 -73 134 -125 25 -64 17 -151 -18 -204 -112 -169 -380 -103 -395 98 -5
72 10 121 51 168 56 64 140 87 228 63z"/>
<path d="M1279 1461 l-24 -19 -3 -524 c-2 -344 0 -535 7 -559 7 -23 20 -40 36
-47 19 -9 346 -12 1274 -12 1248 0 1248 0 1275 21 l26 20 0 550 c0 536 0 549
-20 569 -20 20 -33 20 -1284 20 -1229 0 -1264 -1 -1287 -19z m2441 -571 l0
-440 -1160 0 -1160 0 0 440 0 440 1160 0 1160 0 0 -440z"/>
<path d="M2065 1125 c-47 -17 -71 -43 -85 -93 -13 -47 -13 -256 0 -301 23 -82
117 -126 218 -102 85 21 121 78 122 193 0 64 -16 78 -93 78 -73 0 -89 -8 -89
-45 0 -31 16 -45 51 -45 21 0 23 -3 17 -32 -9 -44 -23 -58 -62 -58 -54 0 -64
25 -64 160 0 135 10 160 65 160 39 0 65 -22 65 -55 0 -25 17 -35 60 -35 37 0
53 28 44 75 -17 92 -137 140 -249 100z"/>
<path d="M2498 1129 c-16 -9 -18 -32 -18 -242 0 -168 3 -236 12 -245 16 -16
70 -16 86 0 9 9 12 77 12 245 0 219 -1 233 -19 243 -25 13 -51 12 -73 -1z"/>
<path d="M2776 1124 c-14 -13 -16 -49 -16 -238 0 -253 2 -259 65 -254 l40 3 3
103 3 102 57 0 c62 0 82 11 82 45 0 34 -20 45 -82 45 l-59 0 3 58 3 57 102 3
c98 3 101 3 107 28 4 13 2 33 -4 44 -10 18 -21 20 -150 20 -113 0 -142 -3
-154 -16z"/>
</g>
</svg>
