<?xml version="1.0" standalone="no"?>
<!DOCTYPE svg PUBLIC "-//W3C//DTD SVG 20010904//EN"
 "http://www.w3.org/TR/2001/REC-SVG-20010904/DTD/svg10.dtd">
<svg version="1.0" xmlns="http://www.w3.org/2000/svg"
 width="750.000000pt" height="644.000000pt" viewBox="0 0 750.000000 644.000000"
 preserveAspectRatio="xMidYMid meet">
<metadata>
Created by potrace 1.16, written by Peter Selinger 2001-2019
</metadata>
<g transform="translate(0.000000,644.000000) scale(0.100000,-0.100000)"
fill="#000000" stroke="none">
<path d="M222 6299 c-43 -22 -74 -56 -92 -104 -7 -18 -10 -791 -10 -2438 l0
-2411 25 -42 c15 -26 43 -54 69 -69 l43 -25 1261 0 1262 0 0 -245 0 -245 -295
0 -295 0 0 -305 0 -305 1515 0 1515 0 0 305 0 305 -290 0 -290 0 0 245 0 245
1272 0 1271 0 43 25 c26 15 54 43 69 69 l25 43 -2 2425 -3 2424 -24 36 c-13
19 -40 46 -59 59 l-36 24 -3465 3 -3466 2 -43 -21z m6921 -132 c15 -9 35 -29
44 -44 17 -26 18 -138 21 -2080 l2 -2053 -3485 0 -3485 0 0 2028 c0 1175 4
2043 10 2066 11 48 46 85 91 96 19 4 1551 7 3404 7 3202 -2 3372 -3 3398 -20z
m65 -4490 c-3 -265 -5 -275 -65 -314 -26 -17 -195 -18 -3418 -18 -3223 0
-3392 1 -3418 18 -60 39 -62 49 -65 314 l-4 243 3487 0 3487 0 -4 -243z
m-2688 -712 l0 -245 -810 0 -810 0 0 238 c0 131 3 242 7 245 3 4 368 7 810 7
l803 0 0 -245z m550 -550 l0 -165 -1375 0 -1375 0 0 165 0 165 1375 0 1375 0
0 -165z"/>
<path d="M400 4060 l0 -1920 3329 0 3329 0 6 23 c3 12 6 876 6 1920 l0 1897
-3335 0 -3335 0 0 -1920z m6590 0 l0 -1850 -205 0 -205 0 0 1765 0 1765 -2870
0 -2870 0 0 -1765 0 -1765 -180 0 -180 0 0 1850 0 1850 3255 0 3255 0 0 -1850z
m-480 -120 l0 -1730 -2795 0 -2795 0 0 1730 0 1730 2795 0 2795 0 0 -1730z"/>
<path d="M1140 4620 l0 -830 1930 0 1930 0 0 830 0 830 -1930 0 -1930 0 0
-830z m3790 0 l0 -760 -1860 0 -1860 0 0 760 0 760 1860 0 1860 0 0 -760z"/>
<path d="M5170 5315 l0 -135 595 0 595 0 0 135 0 135 -595 0 -595 0 0 -135z
m1110 0 l0 -65 -515 0 -515 0 0 65 0 65 515 0 515 0 0 -65z"/>
<path d="M5170 5065 l0 -25 595 0 595 0 0 25 0 25 -595 0 -595 0 0 -25z"/>
<path d="M5180 4855 l0 -25 590 0 590 0 0 25 0 25 -590 0 -590 0 0 -25z"/>
<path d="M5187 4653 c-4 -3 -7 -17 -7 -30 l0 -23 590 0 590 0 0 30 0 30 -583
0 c-321 0 -587 -3 -590 -7z"/>
<path d="M5187 4433 c-4 -3 -7 -17 -7 -30 l0 -23 590 0 590 0 0 30 0 30 -583
0 c-321 0 -587 -3 -590 -7z"/>
<path d="M5180 4205 l0 -25 590 0 590 0 0 25 0 25 -590 0 -590 0 0 -25z"/>
<path d="M5187 4014 c-4 -4 -7 -18 -7 -31 l0 -23 590 0 590 0 0 29 0 28 -583
2 c-320 1 -586 -1 -590 -5z"/>
<path d="M1130 3080 l0 -610 585 0 585 0 0 610 0 610 -585 0 -585 0 0 -610z
m1098 -2 l-3 -533 -512 -3 -513 -2 0 535 0 535 515 0 515 0 -2 -532z"/>
<path d="M2470 3070 l0 -610 588 0 587 0 -3 610 -2 610 -585 0 -585 0 0 -610z
m1100 -5 l0 -535 -510 0 -510 0 0 535 0 535 510 0 510 0 0 -535z"/>
<path d="M3840 3070 l0 -610 585 0 585 0 0 610 0 610 -585 0 -585 0 0 -610z
m1098 -2 l-3 -533 -512 -3 -513 -2 0 535 0 535 515 0 515 0 -2 -532z"/>
<path d="M5177 3673 c-4 -3 -7 -278 -7 -610 l0 -603 590 0 590 0 -2 608 -3
607 -581 3 c-319 1 -584 -1 -587 -5z m1093 -608 l0 -535 -510 0 -510 0 0 535
0 535 510 0 510 0 0 -535z"/>
</g>
</svg>
