<?xml version="1.0" standalone="no"?>
<!DOCTYPE svg PUBLIC "-//W3C//DTD SVG 20010904//EN"
 "http://www.w3.org/TR/2001/REC-SVG-20010904/DTD/svg10.dtd">
<svg version="1.0" xmlns="http://www.w3.org/2000/svg"
 width="512.000000pt" height="512.000000pt" viewBox="0 0 512.000000 512.000000"
 preserveAspectRatio="xMidYMid meet">
<metadata>
Created by potrace 1.16, written by Peter Selinger 2001-2019
</metadata>
<g transform="translate(0.000000,512.000000) scale(0.100000,-0.100000)"
fill="#000000" stroke="none">
<path d="M660 4940 c-18 -18 -20 -33 -20 -164 l0 -143 -28 -6 c-75 -15 -179
-123 -203 -210 -17 -65 -7 -194 20 -246 32 -62 104 -128 162 -148 l49 -18 0
-86 0 -86 -28 -6 c-75 -15 -179 -123 -203 -210 -17 -65 -7 -194 20 -246 32
-62 104 -128 162 -148 l49 -18 0 -86 0 -86 -28 -6 c-75 -15 -179 -123 -203
-210 -17 -65 -7 -194 20 -246 32 -62 104 -128 162 -148 l49 -18 0 -46 c0 -43
-2 -47 -28 -52 -75 -15 -179 -123 -203 -210 -17 -65 -7 -194 20 -246 32 -62
104 -128 162 -148 l49 -18 0 -262 c0 -310 -2 -303 100 -303 l60 0 0 -140 c0
-127 2 -142 20 -160 20 -20 33 -20 1050 -20 567 0 1030 -2 1030 -5 0 -3 -13
-29 -29 -58 -24 -44 -33 -84 -60 -262 -17 -116 -31 -224 -31 -241 0 -42 36
-74 84 -74 33 0 60 18 232 151 106 82 194 155 194 160 0 6 42 82 93 169 l92
160 243 0 c228 0 243 1 262 20 19 19 20 33 20 446 l0 427 317 541 318 541 3
73 c4 62 1 80 -22 126 -30 62 -78 103 -144 122 -58 18 -86 18 -149 -1 -74 -22
-115 -69 -223 -256 l-95 -164 -5 1008 c-5 984 -5 1009 -24 1023 -16 11 -78 14
-334 14 l-314 0 -125 120 -126 120 -1198 0 c-1186 0 -1199 0 -1219 -20z m2300
-400 c0 -247 1 -261 20 -280 19 -19 33 -20 280 -20 l260 0 0 -1196 0 -1195
-167 -285 -166 -284 -1194 0 -1193 0 0 204 0 204 28 7 c46 11 117 63 151 109
85 119 72 216 -29 216 -41 0 -68 -24 -89 -77 -7 -17 -23 -41 -37 -54 l-24 -22
0 270 0 271 28 7 c46 11 117 63 151 109 85 119 72 216 -29 216 -41 0 -68 -24
-89 -77 -7 -17 -23 -41 -37 -54 l-24 -22 0 310 0 311 28 7 c46 11 117 63 151
109 85 119 72 216 -29 216 -41 0 -68 -24 -89 -77 -7 -17 -23 -41 -37 -54 l-24
-22 0 310 0 311 28 7 c46 11 117 63 151 109 85 119 72 216 -29 216 -41 0 -68
-24 -89 -77 -7 -17 -23 -41 -37 -54 l-24 -22 0 306 0 307 1080 0 1080 0 0
-260z m430 -137 c0 -2 -61 -3 -135 -3 l-135 0 0 137 0 138 135 -135 c74 -74
135 -136 135 -137z m450 -926 l0 -1082 -77 -133 -78 -132 -5 1120 -5 1120 -95
95 -95 95 178 0 177 0 0 -1083z m604 -558 c33 -26 34 -70 3 -121 l-22 -37 -55
34 c-30 19 -59 36 -64 38 -5 1 3 22 17 44 42 66 75 78 121 42z m-258 -495 l31
-19 -519 -885 c-285 -487 -523 -886 -528 -888 -18 -6 -121 62 -115 76 4 11
735 1262 987 1690 l49 83 32 -20 c18 -10 46 -27 63 -37z m-349 -1461 c-3 -2
-63 -2 -134 -1 l-130 3 131 223 131 223 3 -222 c1 -122 1 -224 -1 -226z m-758
135 c-6 -13 -27 -49 -46 -80 l-34 -58 -1020 0 -1019 0 0 80 0 80 1065 0 1066
0 -12 -22z"/>
<path d="M1300 4060 c-13 -13 -20 -33 -20 -60 0 -27 7 -47 20 -60 20 -20 33
-20 940 -20 907 0 920 0 940 20 13 13 20 33 20 60 0 27 -7 47 -20 60 -20 20
-33 20 -940 20 -907 0 -920 0 -940 -20z"/>
<path d="M1300 3580 c-13 -13 -20 -33 -20 -60 0 -27 7 -47 20 -60 20 -20 33
-20 940 -20 907 0 920 0 940 20 13 13 20 33 20 60 0 27 -7 47 -20 60 -20 20
-33 20 -940 20 -907 0 -920 0 -940 -20z"/>
<path d="M1300 3100 c-13 -13 -20 -33 -20 -60 0 -27 7 -47 20 -60 20 -20 33
-20 940 -20 907 0 920 0 940 20 13 13 20 33 20 60 0 27 -7 47 -20 60 -20 20
-33 20 -940 20 -907 0 -920 0 -940 -20z"/>
<path d="M1300 2620 c-13 -13 -20 -33 -20 -60 0 -27 7 -47 20 -60 20 -20 33
-20 940 -20 907 0 920 0 940 20 13 13 20 33 20 60 0 27 -7 47 -20 60 -20 20
-33 20 -940 20 -907 0 -920 0 -940 -20z"/>
<path d="M1300 2140 c-13 -13 -20 -33 -20 -60 0 -27 7 -47 20 -60 19 -19 33
-20 380 -20 347 0 361 1 380 20 13 13 20 33 20 60 0 27 -7 47 -20 60 -19 19
-33 20 -380 20 -347 0 -361 -1 -380 -20z"/>
</g>
</svg>
