<?xml version="1.0" standalone="no"?>
<!DOCTYPE svg PUBLIC "-//W3C//DTD SVG 20010904//EN"
 "http://www.w3.org/TR/2001/REC-SVG-20010904/DTD/svg10.dtd">
<svg version="1.0" xmlns="http://www.w3.org/2000/svg"
 width="512.000000pt" height="512.000000pt" viewBox="0 0 512.000000 512.000000"
 preserveAspectRatio="xMidYMid meet">
<metadata>
Created by potrace 1.16, written by Peter Selinger 2001-2019
</metadata>
<g transform="translate(0.000000,512.000000) scale(0.100000,-0.100000)"
fill="#000000" stroke="none">
<path d="M185 4935 l-25 -24 0 -271 0 -271 25 -24 c15 -16 36 -25 55 -25 19 0
40 9 55 25 25 24 25 24 25 240 l0 215 215 0 c216 0 216 0 240 25 33 32 33 78
0 110 l-24 25 -271 0 -271 0 -24 -25z"/>
<path d="M4345 4935 c-16 -15 -25 -36 -25 -55 0 -19 9 -40 25 -55 24 -25 24
-25 240 -25 l215 0 0 -215 c0 -216 0 -216 25 -240 32 -33 78 -33 110 0 l25 24
0 271 0 271 -25 24 -24 25 -271 0 -271 0 -24 -25z"/>
<path d="M505 4615 l-25 -24 0 -751 0 -751 25 -24 24 -25 751 0 751 0 24 25
25 24 0 751 0 751 -25 24 -24 25 -751 0 -751 0 -24 -25z m1415 -775 l0 -640
-640 0 -640 0 0 640 0 640 640 0 640 0 0 -640z"/>
<path d="M825 4295 l-25 -24 0 -431 0 -431 25 -24 24 -25 431 0 431 0 24 25
25 24 0 431 0 431 -25 24 -24 25 -431 0 -431 0 -24 -25z m775 -455 l0 -320
-320 0 -320 0 0 320 0 320 320 0 320 0 0 -320z"/>
<path d="M2265 4615 l-25 -24 0 -271 0 -271 25 -24 c15 -16 36 -25 55 -25 19
0 40 9 55 25 25 24 25 24 25 240 l0 215 55 0 c67 0 105 29 105 80 0 19 -9 40
-25 55 -23 24 -31 25 -135 25 -104 0 -112 -1 -135 -25z"/>
<path d="M2745 4615 c-16 -15 -25 -36 -25 -55 0 -19 9 -40 25 -55 15 -16 36
-25 55 -25 19 0 40 9 55 25 16 15 25 36 25 55 0 19 -9 40 -25 55 -15 16 -36
25 -55 25 -19 0 -40 -9 -55 -25z"/>
<path d="M3065 4615 l-25 -24 0 -745 0 -745 24 -28 24 -28 752 0 752 0 24 28
24 28 0 745 0 745 -25 24 -24 25 -751 0 -751 0 -24 -25z m1415 -775 l0 -640
-640 0 -640 0 0 640 0 640 640 0 640 0 0 -640z"/>
<path d="M3385 4295 l-25 -24 0 -431 0 -431 25 -24 24 -25 431 0 431 0 24 25
25 24 0 431 0 431 -25 24 -24 25 -431 0 -431 0 -24 -25z m775 -455 l0 -320
-320 0 -320 0 0 320 0 320 320 0 320 0 0 -320z"/>
<path d="M2745 4295 c-21 -20 -25 -34 -25 -80 l0 -55 -55 0 c-46 0 -60 -4 -80
-25 -33 -32 -33 -78 0 -110 23 -24 31 -25 135 -25 104 0 112 1 135 25 24 23
25 31 25 135 0 104 -1 112 -25 135 -15 16 -36 25 -55 25 -19 0 -40 -9 -55 -25z"/>
<path d="M2265 3815 l-25 -24 0 -351 0 -351 25 -24 24 -25 271 0 271 0 24 25
c33 32 33 78 0 110 -24 25 -24 25 -240 25 l-215 0 0 295 0 296 -25 24 c-15 16
-36 25 -55 25 -19 0 -40 -9 -55 -25z"/>
<path d="M2765 3735 c-24 -23 -25 -29 -25 -160 l0 -135 -55 0 c-67 0 -105 -29
-105 -80 0 -19 9 -40 25 -55 23 -24 31 -25 135 -25 104 0 112 1 135 25 25 24
25 26 25 215 0 189 0 191 -25 215 -15 16 -36 25 -55 25 -19 0 -40 -9 -55 -25z"/>
<path d="M1165 2885 c-16 -15 -25 -36 -25 -55 0 -19 9 -40 25 -55 24 -25 24
-25 240 -25 l215 0 0 -55 c0 -67 29 -105 80 -105 19 0 40 9 55 25 24 23 25 31
25 135 0 104 -1 112 -25 135 l-24 25 -271 0 -271 0 -24 -25z"/>
<path d="M505 2855 c-16 -15 -25 -36 -25 -55 0 -19 9 -40 25 -55 23 -24 29
-25 160 -25 l135 0 0 -55 c0 -46 4 -60 25 -80 32 -33 78 -33 110 0 24 23 25
31 25 135 0 104 -1 112 -25 135 -24 25 -26 25 -215 25 -189 0 -191 0 -215 -25z"/>
<path d="M1945 2855 c-25 -24 -25 -24 -25 -240 l0 -215 -295 0 -296 0 -24 -25
c-16 -15 -25 -36 -25 -55 0 -19 9 -40 25 -55 l24 -25 351 0 351 0 24 25 25 24
0 271 0 271 -25 24 c-15 16 -36 25 -55 25 -19 0 -40 -9 -55 -25z"/>
<path d="M2265 2855 c-16 -15 -25 -36 -25 -55 0 -19 9 -40 25 -55 l24 -25 256
0 255 0 0 -215 c0 -216 0 -216 25 -240 15 -16 36 -25 55 -25 19 0 40 9 55 25
l25 24 0 271 0 271 -25 24 -24 25 -311 0 -311 0 -24 -25z"/>
<path d="M3145 2855 l-25 -24 0 -271 0 -271 25 -24 c15 -16 36 -25 55 -25 19
0 40 9 55 25 25 24 25 24 25 240 l0 215 255 0 256 0 24 25 c16 15 25 36 25 55
0 19 -9 40 -25 55 l-24 25 -311 0 -311 0 -24 -25z"/>
<path d="M4025 2855 c-16 -15 -25 -36 -25 -55 0 -19 9 -40 25 -55 24 -25 24
-25 240 -25 l215 0 0 -55 c0 -67 29 -105 80 -105 19 0 40 9 55 25 24 23 25 31
25 135 0 104 -1 112 -25 135 l-24 25 -271 0 -271 0 -24 -25z"/>
<path d="M505 2535 c-24 -23 -25 -31 -25 -135 0 -104 1 -112 25 -135 l24 -25
271 0 271 0 24 25 c33 32 33 78 0 110 -24 25 -24 25 -240 25 l-215 0 0 55 c0
67 -29 105 -80 105 -19 0 -40 -9 -55 -25z"/>
<path d="M2265 2535 l-25 -24 0 -271 0 -271 25 -24 c15 -16 36 -25 55 -25 19
0 40 9 55 25 25 24 25 24 25 240 l0 215 95 0 c88 0 98 2 120 25 16 15 25 36
25 55 0 19 -9 40 -25 55 -23 24 -28 25 -175 25 -147 0 -152 -1 -175 -25z"/>
<path d="M3465 2535 l-25 -24 0 -271 0 -271 25 -24 24 -25 226 0 226 0 24 25
c33 32 33 78 0 110 -24 25 -27 25 -195 25 l-170 0 0 215 c0 216 0 216 -25 240
-15 16 -36 25 -55 25 -19 0 -40 -9 -55 -25z"/>
<path d="M3785 2495 c-16 -15 -25 -36 -25 -55 0 -19 9 -40 25 -55 24 -25 27
-25 200 -25 l175 0 0 -55 c0 -67 29 -105 80 -105 19 0 40 9 55 25 24 23 25 31
25 135 0 104 -1 112 -25 135 l-24 25 -231 0 -231 0 -24 -25z"/>
<path d="M4505 2375 c-24 -23 -25 -29 -25 -160 l0 -135 -135 0 c-131 0 -137
-1 -160 -25 -16 -15 -25 -36 -25 -55 0 -19 9 -40 25 -55 24 -25 26 -25 215
-25 257 0 240 -17 240 240 0 189 0 191 -25 215 -15 16 -36 25 -55 25 -19 0
-40 -9 -55 -25z"/>
<path d="M505 2055 l-25 -24 0 -751 0 -751 25 -24 24 -25 751 0 751 0 24 25
25 24 0 751 0 751 -25 24 -24 25 -751 0 -751 0 -24 -25z m1415 -775 l0 -640
-640 0 -640 0 0 640 0 640 640 0 640 0 0 -640z"/>
<path d="M825 1735 l-25 -24 0 -431 0 -431 25 -24 24 -25 431 0 431 0 24 25
25 24 0 431 0 431 -25 24 -24 25 -431 0 -431 0 -24 -25z m775 -455 l0 -320
-320 0 -320 0 0 320 0 320 320 0 320 0 0 -320z"/>
<path d="M2675 2055 c-16 -15 -25 -36 -25 -55 0 -19 9 -40 25 -55 23 -23 31
-25 130 -25 99 0 107 2 130 25 16 15 25 36 25 55 0 19 -9 40 -25 55 -23 23
-31 25 -130 25 -99 0 -107 -2 -130 -25z"/>
<path d="M3145 2055 c-50 -49 -15 -135 55 -135 41 0 80 39 80 80 0 41 -39 80
-80 80 -19 0 -40 -9 -55 -25z"/>
<path d="M2265 1735 c-25 -24 -25 -26 -25 -215 0 -189 0 -191 25 -215 l24 -25
351 0 351 0 24 25 c25 24 25 26 25 215 0 189 0 191 -25 215 l-24 25 -351 0
-351 0 -24 -25z m615 -215 l0 -80 -240 0 -240 0 0 80 0 80 240 0 240 0 0 -80z"/>
<path d="M3225 1735 l-25 -24 0 -591 0 -591 25 -24 24 -25 671 0 671 0 24 25
25 24 0 591 0 591 -25 24 -24 25 -671 0 -671 0 -24 -25z m1255 -615 l0 -480
-560 0 -560 0 0 480 0 480 560 0 560 0 0 -480z"/>
<path d="M3545 1415 c-50 -49 -15 -135 55 -135 41 0 80 39 80 80 0 41 -39 80
-80 80 -19 0 -40 -9 -55 -25z"/>
<path d="M3865 1415 c-16 -15 -25 -36 -25 -55 0 -19 9 -40 25 -55 23 -24 29
-25 160 -25 l135 0 0 -55 c0 -67 29 -105 80 -105 19 0 40 9 55 25 24 23 25 31
25 135 0 104 -1 112 -25 135 -24 25 -26 25 -215 25 -189 0 -191 0 -215 -25z"/>
<path d="M3545 1095 c-24 -23 -25 -31 -25 -135 0 -104 1 -112 25 -135 24 -25
26 -25 215 -25 189 0 191 0 215 25 16 15 25 36 25 55 0 19 -9 40 -25 55 -23
24 -29 25 -160 25 l-135 0 0 55 c0 67 -29 105 -80 105 -19 0 -40 -9 -55 -25z"/>
<path d="M4185 935 c-50 -49 -15 -135 55 -135 41 0 80 39 80 80 0 41 -39 80
-80 80 -19 0 -40 -9 -55 -25z"/>
<path d="M2265 1095 c-24 -23 -25 -31 -25 -135 0 -104 1 -112 25 -135 15 -16
36 -25 55 -25 51 0 80 38 80 105 l0 55 135 0 c131 0 137 1 160 25 16 15 25 36
25 55 0 19 -9 40 -25 55 -24 25 -26 25 -215 25 -189 0 -191 0 -215 -25z"/>
<path d="M2905 1095 c-25 -24 -25 -24 -25 -240 l0 -215 -135 0 c-131 0 -137
-1 -160 -25 -33 -32 -33 -78 0 -110 24 -25 26 -25 215 -25 189 0 191 0 215 25
l25 24 0 271 0 271 -25 24 c-15 16 -36 25 -55 25 -19 0 -40 -9 -55 -25z"/>
<path d="M185 775 l-25 -24 0 -271 0 -271 25 -24 24 -25 271 0 271 0 24 25
c33 32 33 78 0 110 -24 25 -24 25 -240 25 l-215 0 0 215 c0 216 0 216 -25 240
-15 16 -36 25 -55 25 -19 0 -40 -9 -55 -25z"/>
<path d="M4825 775 c-25 -24 -25 -24 -25 -240 l0 -215 -215 0 c-216 0 -216 0
-240 -25 -16 -15 -25 -36 -25 -55 0 -19 9 -40 25 -55 l24 -25 271 0 271 0 24
25 25 24 0 271 0 271 -25 24 c-15 16 -36 25 -55 25 -19 0 -40 -9 -55 -25z"/>
<path d="M2265 615 c-50 -49 -15 -135 55 -135 41 0 80 39 80 80 0 41 -39 80
-80 80 -19 0 -40 -9 -55 -25z"/>
</g>
</svg>
