<?xml version="1.0" standalone="no"?>
<!DOCTYPE svg PUBLIC "-//W3C//DTD SVG 20010904//EN"
 "http://www.w3.org/TR/2001/REC-SVG-20010904/DTD/svg10.dtd">
<svg version="1.0" xmlns="http://www.w3.org/2000/svg"
 width="512.000000pt" height="512.000000pt" viewBox="0 0 512.000000 512.000000"
 preserveAspectRatio="xMidYMid meet">
<metadata>
Created by potrace 1.16, written by Peter Selinger 2001-2019
</metadata>
<g transform="translate(0.000000,512.000000) scale(0.100000,-0.100000)"
fill="#000000" stroke="none">
<path d="M2915 5106 c-204 -47 -378 -181 -465 -360 -80 -163 -74 -50 -78
-1464 l-3 -1263 -37 -32 c-172 -145 -307 -357 -368 -582 -25 -91 -27 -115 -28
-280 0 -163 3 -189 27 -278 167 -619 794 -977 1405 -801 394 113 703 449 786
854 51 251 19 489 -99 725 -66 134 -128 217 -240 323 l-85 81 0 1243 c0 1396
4 1316 -76 1476 -80 164 -235 293 -414 347 -76 22 -249 28 -325 11z m309 -165
c149 -52 271 -174 329 -326 l22 -60 5 -1304 5 -1303 45 -36 c25 -20 77 -68
116 -106 321 -321 373 -829 124 -1210 -134 -205 -350 -359 -586 -418 -128 -32
-343 -32 -464 1 -180 48 -313 123 -444 250 -335 325 -393 840 -137 1227 55 83
176 212 246 261 l30 21 5 1299 5 1298 26 71 c65 177 204 305 382 350 72 19
216 11 291 -15z"/>
<path d="M2963 4756 c-105 -34 -176 -99 -217 -199 l-21 -52 -3 -1317 -2 -1318
-49 -25 c-175 -88 -337 -296 -393 -502 -29 -109 -29 -287 1 -397 87 -324 352
-555 685 -596 151 -19 288 6 442 80 169 82 318 241 388 415 95 237 69 515 -69
731 -69 108 -204 231 -307 280 l-38 18 0 1312 0 1313 -21 58 c-27 72 -94 144
-166 179 -65 32 -166 41 -230 20z m163 -155 c23 -10 54 -36 70 -57 l29 -37 3
-1144 2 -1143 -181 0 -181 0 4 1133 c4 1046 5 1134 21 1164 49 92 142 125 233
84z m104 -2662 c0 -72 5 -139 10 -149 6 -11 52 -41 103 -67 407 -210 482 -746
147 -1056 -121 -112 -269 -170 -435 -170 -112 0 -178 14 -280 63 -132 64 -231
160 -299 290 -48 92 -69 178 -69 290 -1 186 58 326 192 460 69 69 103 94 172
128 48 23 90 49 93 58 3 8 6 73 6 143 0 70 3 131 7 134 3 4 84 7 180 7 l173 0
0 -131z"/>
<path d="M4003 4634 c-20 -20 -24 -31 -19 -57 12 -59 21 -62 201 -65 164 -3
165 -3 190 22 32 32 32 70 0 101 -24 24 -27 25 -185 25 -159 0 -161 0 -187
-26z"/>
<path d="M4001 4024 c-28 -36 -26 -60 8 -95 29 -29 31 -29 141 -29 78 0 119 4
139 15 46 23 54 66 20 109 -20 26 -22 26 -154 26 -132 0 -134 0 -154 -26z"/>
<path d="M1305 3985 c-23 -22 -25 -32 -25 -110 l0 -85 -51 40 c-59 46 -90 50
-124 15 -50 -49 -35 -80 85 -175 l90 -72 0 -154 c0 -85 -2 -154 -5 -154 -10 0
-260 143 -266 152 -3 5 -13 60 -23 123 -16 100 -22 118 -44 135 -31 25 -63 25
-93 2 -24 -21 -29 -57 -16 -129 l7 -42 -70 39 c-83 48 -120 51 -149 14 -43
-55 -26 -88 74 -144 l70 -39 -50 -21 c-68 -29 -85 -47 -85 -87 0 -41 30 -73
67 -73 16 1 75 20 132 44 l104 43 134 -75 c74 -41 133 -75 131 -77 -10 -9
-259 -145 -266 -145 -4 0 -57 20 -117 45 -111 45 -133 48 -167 17 -18 -15 -23
-56 -11 -88 3 -9 33 -29 66 -44 l60 -27 -74 -44 c-84 -50 -104 -82 -78 -127 8
-15 27 -31 43 -37 24 -8 39 -4 108 34 l80 43 -6 -29 c-18 -94 -18 -99 6 -126
23 -26 34 -30 75 -28 34 2 50 36 68 141 8 52 17 105 20 116 3 15 45 44 140 97
l135 75 0 -157 0 -158 -74 -57 c-40 -31 -85 -68 -100 -82 -41 -41 -34 -94 15
-120 25 -13 33 -13 61 0 18 9 48 27 66 42 l32 27 0 -86 c0 -96 13 -123 67
-133 26 -5 37 -1 57 19 24 24 26 33 26 113 l0 87 33 -27 c55 -45 93 -59 125
-44 30 15 48 54 39 89 -4 14 -45 54 -102 99 l-95 75 0 158 0 158 43 -25 c23
-13 85 -49 137 -78 l95 -54 16 -99 c23 -147 26 -155 61 -169 39 -17 63 -11 89
23 17 21 19 34 14 71 -3 25 -9 54 -12 64 -4 16 8 12 70 -22 88 -49 109 -51
142 -17 51 50 23 102 -85 159 l-54 28 51 22 c27 11 57 27 67 35 22 18 21 83
-1 103 -36 30 -54 29 -166 -17 -61 -25 -115 -45 -119 -45 -5 0 -67 33 -139 74
l-130 73 134 75 135 75 103 -43 c57 -24 116 -43 132 -44 37 0 67 32 67 73 0
40 -17 58 -85 87 l-50 21 70 39 c38 21 75 47 82 56 33 45 -4 114 -61 114 -15
0 -55 -16 -87 -35 -67 -39 -83 -43 -75 -17 3 9 8 38 11 64 6 42 4 50 -18 72
-32 32 -71 33 -101 3 -23 -23 -32 -58 -54 -210 l-7 -49 -125 -70 c-69 -38
-131 -72 -137 -75 -10 -4 -13 30 -13 150 l0 154 98 79 c82 67 97 85 100 112 4
38 -34 82 -72 82 -13 0 -47 -18 -75 -40 l-51 -40 0 85 c0 78 -2 88 -25 110
-13 14 -36 25 -50 25 -14 0 -37 -11 -50 -25z"/>
<path d="M4003 3424 c-20 -20 -24 -31 -19 -57 12 -59 21 -62 201 -65 164 -3
165 -3 190 22 32 32 32 70 0 101 -24 24 -27 25 -185 25 -159 0 -161 0 -187
-26z"/>
<path d="M4024 2829 c-22 -11 -44 -48 -44 -75 0 -8 11 -26 25 -39 23 -24 29
-25 154 -25 128 0 130 0 150 26 26 33 27 65 2 95 -18 23 -26 24 -143 26 -72 2
-132 -2 -144 -8z"/>
<path d="M4009 2211 c-17 -13 -23 -29 -23 -56 0 -27 6 -43 23 -56 21 -17 42
-19 183 -19 155 0 159 1 183 25 14 13 25 36 25 50 0 14 -11 37 -25 50 -24 24
-28 25 -183 25 -141 0 -162 -2 -183 -19z"/>
</g>
</svg>
